<svg width="20" height="23" viewBox="0 0 20 23" fill="none" xmlns="http://www.w3.org/2000/svg">
<path d="M0.420049 12.3612C0.552728 12.2326 0.710383 12.1305 0.883977 12.0609C1.05757 11.9912 1.24369 11.9554 1.43165 11.9554C1.61961 11.9554 1.80573 11.9912 1.97932 12.0609C2.15291 12.1305 2.31057 12.2326 2.44325 12.3612L8.57118 18.2814L8.57118 1.37973C8.57118 1.0138 8.72165 0.662864 8.98948 0.404115C9.25731 0.145366 9.62056 9.99949e-07 9.99933 1.03306e-06C10.3781 1.06617e-06 10.7413 0.145366 11.0092 0.404115C11.277 0.662864 11.4275 1.0138 11.4275 1.37973L11.4275 18.2814L17.5578 12.3612C17.8261 12.102 18.19 11.9564 18.5694 11.9564C18.9488 11.9564 19.3127 12.102 19.581 12.3612C19.8493 12.6204 20 12.972 20 13.3385C20 13.7051 19.8493 14.0566 19.581 14.3158L11.0121 22.5942C10.8794 22.7228 10.7218 22.8249 10.5482 22.8945C10.3746 22.9642 10.1885 23 10.0005 23C9.81255 23 9.62644 22.9642 9.45284 22.8945C9.27925 22.8249 9.12159 22.7228 8.98891 22.5942L0.420049 14.3158C0.286908 14.1876 0.181268 14.0353 0.109185 13.8676C0.0371045 13.6999 -1.07859e-06 13.5201 -1.06272e-06 13.3385C-1.04684e-06 13.1569 0.0371045 12.9771 0.109185 12.8094C0.181268 12.6417 0.286908 12.4894 0.420049 12.3612Z" fill="#87FEFE"/>
</svg>
