<svg width="20" height="23" viewBox="0 0 20 23" fill="none" xmlns="http://www.w3.org/2000/svg">
<path d="M19.58 10.6388C19.4473 10.7674 19.2896 10.8695 19.116 10.9391C18.9424 11.0088 18.7563 11.0446 18.5683 11.0446C18.3804 11.0446 18.1943 11.0088 18.0207 10.9391C17.8471 10.8695 17.6894 10.7674 17.5567 10.6388L11.4288 4.71861V21.6203C11.4288 21.9862 11.2784 22.3371 11.0105 22.5959C10.7427 22.8546 10.3794 23 10.0007 23C9.62191 23 9.25865 22.8546 8.99082 22.5959C8.72299 22.3371 8.57253 21.9862 8.57253 21.6203V4.71861L2.44222 10.6388C2.17393 10.898 1.81005 11.0436 1.43062 11.0436C1.0512 11.0436 0.687313 10.898 0.419019 10.6388C0.150726 10.3796 0 10.028 0 9.66148C0 9.29492 0.150726 8.94337 0.419019 8.68418L8.98788 0.405808C9.12056 0.277181 9.27822 0.175122 9.45181 0.105484C9.62541 0.0358467 9.81152 0 9.99948 0C10.1874 0 10.3736 0.0358467 10.5472 0.105484C10.7208 0.175122 10.8784 0.277181 11.0111 0.405808L19.58 8.68418C19.7131 8.81236 19.8187 8.96467 19.8908 9.13238C19.9629 9.30009 20 9.47989 20 9.66148C20 9.84307 19.9629 10.0229 19.8908 10.1906C19.8187 10.3583 19.7131 10.5106 19.58 10.6388Z" fill="#87FEFE"/>
</svg>
