/* XPM */
static char *test[] = {
"8 8 2 1",
"  c #8B4513",
". c #A0522D",
"  . .  .",
" ... ...",
". . . . ",
"... ....",
"  . .  .",
" ... ...",
". . . . ",
"... ...."
};