<svg width="1305" height="817" viewBox="0 0 1305 817" fill="none" xmlns="http://www.w3.org/2000/svg">
<g filter="url(#filter0_d_114_521)">
<path d="M51.5 51.5L87 16L652.5 16H1217.5L1254.29 50.5L1289 84.5V408.5V731.5L1254 766L1217.5 801H652.5H87L50.5 766.5L16 731.5V408.5V88L51.5 51.5Z" fill="#00A6FF" fill-opacity="0.75" shape-rendering="crispEdges"/>
<path d="M1216.71 18L1252.92 51.959L1287 85.3398V730.662L1252.6 764.575L1216.7 799H87.7959L51.9121 765.083L18 730.679V88.8115L52.9336 52.8945L87.8281 18H1216.71Z" stroke="#87FEFE" stroke-width="4" shape-rendering="crispEdges"/>
</g>
<g filter="url(#filter1_d_114_521)">
<line x1="653" y1="16" x2="653" y2="801" stroke="#87FEFE" stroke-width="4"/>
</g>
<g filter="url(#filter2_d_114_521)">
<path d="M740.346 560.286L565.655 560.286L478.311 409L565.655 257.714L740.346 257.714L827.69 409L740.346 560.286Z" stroke="#87FEFE" stroke-width="4" shape-rendering="crispEdges"/>
</g>
<line x1="51" y1="55" x2="51" y2="764" stroke="#87FEFE" stroke-width="2"/>
<line x1="87" y1="17" x2="87" y2="797" stroke="#87FEFE" stroke-width="2"/>
<line x1="1218" y1="20" x2="1218" y2="797" stroke="#87FEFE" stroke-width="2"/>
<line x1="1254" y1="53" x2="1254" y2="763" stroke="#87FEFE" stroke-width="2"/>
<defs>
<filter id="filter0_d_114_521" x="0" y="0" width="1305" height="817" filterUnits="userSpaceOnUse" color-interpolation-filters="sRGB">
<feFlood flood-opacity="0" result="BackgroundImageFix"/>
<feColorMatrix in="SourceAlpha" type="matrix" values="0 0 0 0 0 0 0 0 0 0 0 0 0 0 0 0 0 0 127 0" result="hardAlpha"/>
<feOffset/>
<feGaussianBlur stdDeviation="8"/>
<feComposite in2="hardAlpha" operator="out"/>
<feColorMatrix type="matrix" values="0 0 0 0 0.529412 0 0 0 0 0.996078 0 0 0 0 0.996078 0 0 0 0.5 0"/>
<feBlend mode="normal" in2="BackgroundImageFix" result="effect1_dropShadow_114_521"/>
<feBlend mode="normal" in="SourceGraphic" in2="effect1_dropShadow_114_521" result="shape"/>
</filter>
<filter id="filter1_d_114_521" x="647" y="12" width="12" height="793" filterUnits="userSpaceOnUse" color-interpolation-filters="sRGB">
<feFlood flood-opacity="0" result="BackgroundImageFix"/>
<feColorMatrix in="SourceAlpha" type="matrix" values="0 0 0 0 0 0 0 0 0 0 0 0 0 0 0 0 0 0 127 0" result="hardAlpha"/>
<feOffset/>
<feGaussianBlur stdDeviation="2"/>
<feComposite in2="hardAlpha" operator="out"/>
<feColorMatrix type="matrix" values="0 0 0 0 0.529412 0 0 0 0 0.996078 0 0 0 0 0.996078 0 0 0 0.5 0"/>
<feBlend mode="normal" in2="BackgroundImageFix" result="effect1_dropShadow_114_521"/>
<feBlend mode="normal" in="SourceGraphic" in2="effect1_dropShadow_114_521" result="shape"/>
</filter>
<filter id="filter2_d_114_521" x="472" y="251.714" width="362" height="314.573" filterUnits="userSpaceOnUse" color-interpolation-filters="sRGB">
<feFlood flood-opacity="0" result="BackgroundImageFix"/>
<feColorMatrix in="SourceAlpha" type="matrix" values="0 0 0 0 0 0 0 0 0 0 0 0 0 0 0 0 0 0 127 0" result="hardAlpha"/>
<feOffset/>
<feGaussianBlur stdDeviation="2"/>
<feComposite in2="hardAlpha" operator="out"/>
<feColorMatrix type="matrix" values="0 0 0 0 0.529412 0 0 0 0 0.996078 0 0 0 0 0.996078 0 0 0 0.5 0"/>
<feBlend mode="normal" in2="BackgroundImageFix" result="effect1_dropShadow_114_521"/>
<feBlend mode="normal" in="SourceGraphic" in2="effect1_dropShadow_114_521" result="shape"/>
</filter>
</defs>
</svg>
