<svg width="1305" height="817" viewBox="0 0 1305 817" fill="none" xmlns="http://www.w3.org/2000/svg">
<g filter="url(#filter0_d_189_6)">
<path d="M40 44.5718L87 16L652.5 16H1217.5L1259.77 41L1289 58.5V408.5V759L1262.5 774.5L1217.5 801H652.5H87L43 774L16 757.5V408.5V59.5L40 44.5718Z" fill="#00A6FF" fill-opacity="0.75" shape-rendering="crispEdges"/>
<path d="M1216.95 18L1258.76 42.7217L1287 59.6328V757.853L1261.49 772.773L1261.49 772.776L1216.96 799H87.5654L44.0459 772.295L44.043 772.293L18 756.377V60.6113L41.0391 46.2812L87.5605 18H1216.95Z" stroke="#87FEFE" stroke-width="4" shape-rendering="crispEdges"/>
</g>
<line x1="89" y1="16" x2="89" y2="796" stroke="#87FEFE" stroke-width="2"/>
<line x1="1218" y1="20" x2="1218" y2="797" stroke="#87FEFE" stroke-width="2"/>
<g filter="url(#filter1_d_189_6)">
<line x1="653" y1="16" x2="653" y2="801" stroke="#87FEFE" stroke-width="4"/>
</g>
<g filter="url(#filter2_d_189_6)">
<path d="M740.346 560.286L565.655 560.286L478.311 409L565.655 257.714L740.346 257.714L827.69 409L740.346 560.286Z" stroke="#87FEFE" stroke-width="4" shape-rendering="crispEdges"/>
</g>
<defs>
<filter id="filter0_d_189_6" x="0" y="0" width="1305" height="817" filterUnits="userSpaceOnUse" color-interpolation-filters="sRGB">
<feFlood flood-opacity="0" result="BackgroundImageFix"/>
<feColorMatrix in="SourceAlpha" type="matrix" values="0 0 0 0 0 0 0 0 0 0 0 0 0 0 0 0 0 0 127 0" result="hardAlpha"/>
<feOffset/>
<feGaussianBlur stdDeviation="8"/>
<feComposite in2="hardAlpha" operator="out"/>
<feColorMatrix type="matrix" values="0 0 0 0 0.529412 0 0 0 0 0.996078 0 0 0 0 0.996078 0 0 0 0.5 0"/>
<feBlend mode="normal" in2="BackgroundImageFix" result="effect1_dropShadow_189_6"/>
<feBlend mode="normal" in="SourceGraphic" in2="effect1_dropShadow_189_6" result="shape"/>
</filter>
<filter id="filter1_d_189_6" x="647" y="12" width="12" height="793" filterUnits="userSpaceOnUse" color-interpolation-filters="sRGB">
<feFlood flood-opacity="0" result="BackgroundImageFix"/>
<feColorMatrix in="SourceAlpha" type="matrix" values="0 0 0 0 0 0 0 0 0 0 0 0 0 0 0 0 0 0 127 0" result="hardAlpha"/>
<feOffset/>
<feGaussianBlur stdDeviation="2"/>
<feComposite in2="hardAlpha" operator="out"/>
<feColorMatrix type="matrix" values="0 0 0 0 0.529412 0 0 0 0 0.996078 0 0 0 0 0.996078 0 0 0 0.5 0"/>
<feBlend mode="normal" in2="BackgroundImageFix" result="effect1_dropShadow_189_6"/>
<feBlend mode="normal" in="SourceGraphic" in2="effect1_dropShadow_189_6" result="shape"/>
</filter>
<filter id="filter2_d_189_6" x="472" y="251.713" width="362" height="314.573" filterUnits="userSpaceOnUse" color-interpolation-filters="sRGB">
<feFlood flood-opacity="0" result="BackgroundImageFix"/>
<feColorMatrix in="SourceAlpha" type="matrix" values="0 0 0 0 0 0 0 0 0 0 0 0 0 0 0 0 0 0 127 0" result="hardAlpha"/>
<feOffset/>
<feGaussianBlur stdDeviation="2"/>
<feComposite in2="hardAlpha" operator="out"/>
<feColorMatrix type="matrix" values="0 0 0 0 0.529412 0 0 0 0 0.996078 0 0 0 0 0.996078 0 0 0 0.5 0"/>
<feBlend mode="normal" in2="BackgroundImageFix" result="effect1_dropShadow_189_6"/>
<feBlend mode="normal" in="SourceGraphic" in2="effect1_dropShadow_189_6" result="shape"/>
</filter>
</defs>
</svg>
