<svg width="28" height="28" viewBox="0 0 28 28" fill="none" xmlns="http://www.w3.org/2000/svg">
<g filter="url(#filter0_d_106_627)">
<path d="M23.7081 22.2925C23.801 22.3854 23.8747 22.4957 23.9249 22.6171C23.9752 22.7385 24.0011 22.8686 24.0011 23C24.0011 23.1314 23.9752 23.2615 23.9249 23.3829C23.8747 23.5043 23.801 23.6146 23.7081 23.7075C23.6151 23.8004 23.5048 23.8741 23.3835 23.9244C23.2621 23.9747 23.132 24.0006 23.0006 24.0006C22.8692 24.0006 22.7391 23.9747 22.6177 23.9244C22.4963 23.8741 22.386 23.8004 22.2931 23.7075L14.0006 15.4138L5.70806 23.7075C5.52042 23.8951 5.26592 24.0006 5.00056 24.0006C4.73519 24.0006 4.4807 23.8951 4.29306 23.7075C4.10542 23.5199 4 23.2654 4 23C4 22.7346 4.10542 22.4801 4.29306 22.2925L12.5868 14L4.29306 5.70751C4.10542 5.51987 4 5.26537 4 5.00001C4 4.73464 4.10542 4.48015 4.29306 4.29251C4.4807 4.10487 4.73519 3.99945 5.00056 3.99945C5.26592 3.99945 5.52042 4.10487 5.70806 4.29251L14.0006 12.5863L22.2931 4.29251C22.4807 4.10487 22.7352 3.99945 23.0006 3.99945C23.2659 3.99945 23.5204 4.10487 23.7081 4.29251C23.8957 4.48015 24.0011 4.73464 24.0011 5.00001C24.0011 5.26537 23.8957 5.51987 23.7081 5.70751L15.4143 14L23.7081 22.2925Z" fill="#87FEFE"/>
</g>
<defs>
<filter id="filter0_d_106_627" x="0" y="-0.000549316" width="28.0012" height="28.0011" filterUnits="userSpaceOnUse" color-interpolation-filters="sRGB">
<feFlood flood-opacity="0" result="BackgroundImageFix"/>
<feColorMatrix in="SourceAlpha" type="matrix" values="0 0 0 0 0 0 0 0 0 0 0 0 0 0 0 0 0 0 127 0" result="hardAlpha"/>
<feOffset/>
<feGaussianBlur stdDeviation="2"/>
<feComposite in2="hardAlpha" operator="out"/>
<feColorMatrix type="matrix" values="0 0 0 0 0.94902 0 0 0 0 0.996078 0 0 0 0 0.854902 0 0 0 0.25 0"/>
<feBlend mode="normal" in2="BackgroundImageFix" result="effect1_dropShadow_106_627"/>
<feBlend mode="normal" in="SourceGraphic" in2="effect1_dropShadow_106_627" result="shape"/>
</filter>
</defs>
</svg>
