<svg width="34" height="36" viewBox="0 0 34 36" fill="none" xmlns="http://www.w3.org/2000/svg">
<g filter="url(#filter0_d_280_9)">
<path d="M28.9167 8.30769H23.5V7.23077C23.5 6.37392 23.1576 5.55216 22.5481 4.94627C21.9386 4.34038 21.112 4 20.25 4H13.75C12.888 4 12.0614 4.34038 11.4519 4.94627C10.8424 5.55216 10.5 6.37392 10.5 7.23077V8.30769H5.08333C4.79602 8.30769 4.52047 8.42115 4.3173 8.62312C4.11414 8.82508 4 9.099 4 9.38462C4 9.67023 4.11414 9.94415 4.3173 10.1461C4.52047 10.3481 4.79602 10.4615 5.08333 10.4615H6.16667V29.8462C6.16667 30.4174 6.39494 30.9652 6.80127 31.3692C7.2076 31.7731 7.7587 32 8.33333 32H25.6667C26.2413 32 26.7924 31.7731 27.1987 31.3692C27.6051 30.9652 27.8333 30.4174 27.8333 29.8462V10.4615H28.9167C29.204 10.4615 29.4795 10.3481 29.6827 10.1461C29.8859 9.94415 30 9.67023 30 9.38462C30 9.099 29.8859 8.82508 29.6827 8.62312C29.4795 8.42115 29.204 8.30769 28.9167 8.30769ZM12.6667 7.23077C12.6667 6.94515 12.7808 6.67123 12.984 6.46927C13.1871 6.26731 13.4627 6.15385 13.75 6.15385H20.25C20.5373 6.15385 20.8129 6.26731 21.016 6.46927C21.2192 6.67123 21.3333 6.94515 21.3333 7.23077V8.30769H12.6667V7.23077ZM25.6667 29.8462H8.33333V10.4615H25.6667V29.8462ZM14.8333 15.8462V24.4615C14.8333 24.7472 14.7192 25.0211 14.516 25.223C14.3129 25.425 14.0373 25.5385 13.75 25.5385C13.4627 25.5385 13.1871 25.425 12.984 25.223C12.7808 25.0211 12.6667 24.7472 12.6667 24.4615V15.8462C12.6667 15.5605 12.7808 15.2866 12.984 15.0847C13.1871 14.8827 13.4627 14.7692 13.75 14.7692C14.0373 14.7692 14.3129 14.8827 14.516 15.0847C14.7192 15.2866 14.8333 15.5605 14.8333 15.8462ZM21.3333 15.8462V24.4615C21.3333 24.7472 21.2192 25.0211 21.016 25.223C20.8129 25.425 20.5373 25.5385 20.25 25.5385C19.9627 25.5385 19.6871 25.425 19.484 25.223C19.2808 25.0211 19.1667 24.7472 19.1667 24.4615V15.8462C19.1667 15.5605 19.2808 15.2866 19.484 15.0847C19.6871 14.8827 19.9627 14.7692 20.25 14.7692C20.5373 14.7692 20.8129 14.8827 21.016 15.0847C21.2192 15.2866 21.3333 15.5605 21.3333 15.8462Z" fill="#F2FEDA"/>
</g>
<defs>
<filter id="filter0_d_280_9" x="0" y="0" width="34" height="36" filterUnits="userSpaceOnUse" color-interpolation-filters="sRGB">
<feFlood flood-opacity="0" result="BackgroundImageFix"/>
<feColorMatrix in="SourceAlpha" type="matrix" values="0 0 0 0 0 0 0 0 0 0 0 0 0 0 0 0 0 0 127 0" result="hardAlpha"/>
<feOffset/>
<feGaussianBlur stdDeviation="2"/>
<feComposite in2="hardAlpha" operator="out"/>
<feColorMatrix type="matrix" values="0 0 0 0 0.94902 0 0 0 0 0.996078 0 0 0 0 0.854902 0 0 0 0.25 0"/>
<feBlend mode="normal" in2="BackgroundImageFix" result="effect1_dropShadow_280_9"/>
<feBlend mode="normal" in="SourceGraphic" in2="effect1_dropShadow_280_9" result="shape"/>
</filter>
</defs>
</svg>
