<svg width="36" height="32" viewBox="0 0 36 32" fill="none" xmlns="http://www.w3.org/2000/svg">
<g filter="url(#filter0_d_105_260)">
<path d="M11 17H6C5.73478 17 5.48043 16.8946 5.29289 16.7071C5.10536 16.5196 5 16.2652 5 16C5 15.7348 5.10536 15.4804 5.29289 15.2929C5.48043 15.1054 5.73478 15 6 15H10.465L12.1675 12.445C12.2588 12.3078 12.3825 12.1953 12.5278 12.1175C12.673 12.0397 12.8352 11.999 13 11.999C13.1648 11.999 13.327 12.0397 13.4722 12.1175C13.6175 12.1953 13.7412 12.3078 13.8325 12.445L17 17.195L18.1675 15.445C18.2589 15.308 18.3827 15.1957 18.5279 15.1181C18.6732 15.0405 18.8353 14.9999 19 15H22C22.2652 15 22.5196 15.1054 22.7071 15.2929C22.8946 15.4804 23 15.7348 23 16C23 16.2652 22.8946 16.5196 22.7071 16.7071C22.5196 16.8946 22.2652 17 22 17H19.535L17.8325 19.555C17.7412 19.6922 17.6175 19.8047 17.4722 19.8825C17.327 19.9603 17.1648 20.001 17 20.001C16.8352 20.001 16.673 19.9603 16.5278 19.8825C16.3825 19.8047 16.2588 19.6922 16.1675 19.555L13 14.8025L11.8325 16.5525C11.7414 16.6899 11.6177 16.8027 11.4725 16.8808C11.3272 16.9589 11.1649 16.9998 11 17ZM24.25 4C21.6688 4 19.4088 5.11 18 6.98625C16.5912 5.11 14.3313 4 11.75 4C9.69528 4.00232 7.72539 4.81958 6.27248 6.27248C4.81958 7.72539 4.00232 9.69528 4 11.75C4 11.8438 4 11.9375 4 12.0312C4.00829 12.2965 4.12159 12.5475 4.31499 12.7292C4.50839 12.9109 4.76603 13.0083 5.03125 13C5.29647 12.9917 5.54753 12.8784 5.7292 12.685C5.91088 12.4916 6.00829 12.234 6 11.9688C6 11.8962 6 11.8225 6 11.75C6.00198 10.2256 6.60842 8.76423 7.68633 7.68633C8.76423 6.60842 10.2256 6.00198 11.75 6C14.1812 6 16.2225 7.295 17.075 9.375C17.1503 9.55841 17.2785 9.71528 17.4432 9.82569C17.6079 9.93609 17.8017 9.99503 18 9.99503C18.1983 9.99503 18.3921 9.93609 18.5568 9.82569C18.7215 9.71528 18.8497 9.55841 18.925 9.375C19.7775 7.29125 21.8188 6 24.25 6C25.7744 6.00198 27.2358 6.60842 28.3137 7.68633C29.3916 8.76423 29.998 10.2256 30 11.75C30 18.4513 20.28 24.5188 18 25.85C16.6462 25.0613 12.6712 22.6 9.665 19.3237C9.57619 19.2269 9.46918 19.1485 9.35007 19.093C9.23096 19.0375 9.10209 19.006 8.97081 19.0003C8.83953 18.9946 8.70842 19.0149 8.58496 19.0598C8.46149 19.1048 8.3481 19.1737 8.25125 19.2625C8.1544 19.3513 8.07599 19.4583 8.0205 19.5774C7.965 19.6965 7.93352 19.8254 7.92783 19.9567C7.92214 20.088 7.94237 20.2191 7.98735 20.3425C8.03233 20.466 8.10119 20.5794 8.19 20.6763C12.0863 24.9263 17.3062 27.7612 17.5262 27.88C17.6719 27.9583 17.8346 27.9993 18 27.9993C18.1654 27.9993 18.3281 27.9583 18.4737 27.88C19.0262 27.5825 32 20.5 32 11.75C31.9977 9.69528 31.1804 7.72539 29.7275 6.27248C28.2746 4.81958 26.3047 4.00232 24.25 4Z" fill="#87FEFE"/>
</g>
<defs>
<filter id="filter0_d_105_260" x="0" y="0" width="36" height="31.9993" filterUnits="userSpaceOnUse" color-interpolation-filters="sRGB">
<feFlood flood-opacity="0" result="BackgroundImageFix"/>
<feColorMatrix in="SourceAlpha" type="matrix" values="0 0 0 0 0 0 0 0 0 0 0 0 0 0 0 0 0 0 127 0" result="hardAlpha"/>
<feOffset/>
<feGaussianBlur stdDeviation="2"/>
<feComposite in2="hardAlpha" operator="out"/>
<feColorMatrix type="matrix" values="0 0 0 0 0.94902 0 0 0 0 0.996078 0 0 0 0 0.854902 0 0 0 0.25 0"/>
<feBlend mode="normal" in2="BackgroundImageFix" result="effect1_dropShadow_105_260"/>
<feBlend mode="normal" in="SourceGraphic" in2="effect1_dropShadow_105_260" result="shape"/>
</filter>
</defs>
</svg>
