<svg width="36" height="32" viewBox="0 0 36 32" fill="none" xmlns="http://www.w3.org/2000/svg">
<g filter="url(#filter0_d_105_276)">
<path d="M32 16C31.9988 14.7278 31.6475 13.4821 30.9868 12.4068C30.3261 11.3316 29.3831 10.4708 28.2668 9.92419V9.75732C28.2657 8.51985 27.8775 7.31561 27.1597 6.32278C26.4419 5.32995 25.4326 4.60128 24.2811 4.24458C23.1296 3.88788 21.8971 3.92211 20.766 4.3422C19.6348 4.76229 18.6652 5.54593 18.0004 6.57715C17.3357 5.54593 16.366 4.76229 15.2349 4.3422C14.1038 3.92211 12.8713 3.88788 11.7198 4.24458C10.5683 4.60128 9.55896 5.32995 8.84114 6.32278C8.12333 7.31561 7.73517 8.51985 7.73409 9.75732V9.92419C6.61685 10.4693 5.67288 11.3295 5.01189 12.4048C4.35089 13.4802 4 14.7264 4 15.9988C4 17.2712 4.35089 18.5174 5.01189 19.5928C5.67288 20.6681 6.61685 21.5283 7.73409 22.0734V22.2427C7.73517 23.4802 8.12333 24.6844 8.84114 25.6772C9.55896 26.67 10.5683 27.3987 11.7198 27.7554C12.8713 28.1121 14.1038 28.0779 15.2349 27.6578C16.366 27.2377 17.3357 26.4541 18.0004 25.4228C18.6652 26.4541 19.6348 27.2377 20.766 27.6578C21.8971 28.0779 23.1296 28.1121 24.2811 27.7554C25.4326 27.3987 26.4419 26.67 27.1597 25.6772C27.8775 24.6844 28.2657 23.4802 28.2668 22.2427V22.0734C29.3829 21.5272 30.3259 20.6669 30.9865 19.592C31.6472 18.5172 31.9986 17.2718 32 16ZM13.3339 26.0843C12.4134 26.0842 11.5254 25.7341 10.8404 25.1012C10.1554 24.4684 9.72182 23.5974 9.62287 22.6557C9.92468 22.7 10.2291 22.7224 10.534 22.7229H11.4673C11.7148 22.7229 11.9522 22.6217 12.1273 22.4416C12.3023 22.2615 12.4006 22.0172 12.4006 21.7625C12.4006 21.5078 12.3023 21.2635 12.1273 21.0834C11.9522 20.9032 11.7148 20.8021 11.4673 20.8021H10.534C9.43219 20.8034 8.36546 20.4035 7.52267 19.6732C6.67988 18.9428 6.11541 17.9292 5.92917 16.8117C5.74294 15.6942 5.94697 14.5449 6.50513 13.5673C7.0633 12.5898 7.9396 11.847 8.97889 11.4705C9.16073 11.4042 9.31816 11.2816 9.42951 11.1195C9.54086 10.9574 9.60067 10.7638 9.6007 10.5653V9.75732C9.6007 8.73845 9.99402 7.76131 10.6941 7.04086C11.3942 6.32041 12.3438 5.91567 13.3339 5.91567C14.324 5.91567 15.2736 6.32041 15.9737 7.04086C16.6738 7.76131 17.0671 8.73845 17.0671 9.75732V17.952C16.0423 17.0035 14.7123 16.4792 13.3339 16.4802C13.0864 16.4802 12.849 16.5814 12.674 16.7615C12.4989 16.9416 12.4006 17.1859 12.4006 17.4406C12.4006 17.6953 12.4989 17.9396 12.674 18.1197C12.849 18.2998 13.0864 18.401 13.3339 18.401C14.324 18.401 15.2736 18.8058 15.9737 19.5262C16.6738 20.2467 17.0671 21.2238 17.0671 22.2427C17.0671 23.2616 16.6738 24.2387 15.9737 24.9591C15.2736 25.6796 14.324 26.0843 13.3339 26.0843ZM25.4669 20.8021H24.5336C24.286 20.8021 24.0486 20.9032 23.8736 21.0834C23.6986 21.2635 23.6003 21.5078 23.6003 21.7625C23.6003 22.0172 23.6986 22.2615 23.8736 22.4416C24.0486 22.6217 24.286 22.7229 24.5336 22.7229H25.4669C25.7717 22.7224 26.0762 22.7 26.378 22.6557C26.3005 23.3936 26.0169 24.0926 25.5615 24.6682C25.1061 25.2437 24.4984 25.6713 23.812 25.899C23.1255 26.1268 22.3896 26.145 21.6933 25.9515C20.9969 25.758 20.37 25.3611 19.8882 24.8088C19.4064 24.2564 19.0904 23.5723 18.9785 22.8391C18.8665 22.1058 18.9633 21.3549 19.2573 20.6771C19.5512 19.9994 20.0296 19.4237 20.6347 19.0198C21.2398 18.6158 21.9457 18.4009 22.667 18.401C22.9145 18.401 23.1519 18.2998 23.3269 18.1197C23.5019 17.9396 23.6003 17.6953 23.6003 17.4406C23.6003 17.1859 23.5019 16.9416 23.3269 16.7615C23.1519 16.5814 22.9145 16.4802 22.667 16.4802C21.2885 16.4792 19.9586 17.0035 18.9337 17.952V9.75732C18.9337 8.73845 19.3271 7.76131 20.0272 7.04086C20.7273 6.32041 21.6768 5.91567 22.667 5.91567C23.6571 5.91567 24.6066 6.32041 25.3067 7.04086C26.0069 7.76131 26.4002 8.73845 26.4002 9.75732V10.5653C26.4002 10.7638 26.46 10.9574 26.5714 11.1195C26.6827 11.2816 26.8401 11.4042 27.022 11.4705C28.0613 11.847 28.9376 12.5898 29.4957 13.5673C30.0539 14.5449 30.2579 15.6942 30.0717 16.8117C29.8855 17.9292 29.321 18.9428 28.4782 19.6732C27.6354 20.4035 26.5687 20.8034 25.4669 20.8021ZM27.3335 14.5594C27.3335 14.8141 27.2351 15.0584 27.0601 15.2385C26.8851 15.4186 26.6477 15.5198 26.4002 15.5198H25.9335C24.8196 15.5198 23.7514 15.0645 22.9638 14.254C22.1761 13.4434 21.7337 12.3442 21.7337 11.1979V10.7177C21.7337 10.463 21.832 10.2187 22.007 10.0386C22.182 9.8585 22.4194 9.75732 22.667 9.75732C22.9145 9.75732 23.1519 9.8585 23.3269 10.0386C23.5019 10.2187 23.6003 10.463 23.6003 10.7177V11.1979C23.6003 11.8347 23.8461 12.4454 24.2837 12.8957C24.7212 13.346 25.3147 13.599 25.9335 13.599H26.4002C26.6477 13.599 26.8851 13.7002 27.0601 13.8803C27.2351 14.0604 27.3335 14.3047 27.3335 14.5594ZM10.0674 15.5198H9.6007C9.35317 15.5198 9.11578 15.4186 8.94075 15.2385C8.76573 15.0584 8.6674 14.8141 8.6674 14.5594C8.6674 14.3047 8.76573 14.0604 8.94075 13.8803C9.11578 13.7002 9.35317 13.599 9.6007 13.599H10.0674C10.6862 13.599 11.2796 13.346 11.7172 12.8957C12.1548 12.4454 12.4006 11.8347 12.4006 11.1979V10.7177C12.4006 10.463 12.4989 10.2187 12.674 10.0386C12.849 9.8585 13.0864 9.75732 13.3339 9.75732C13.5814 9.75732 13.8188 9.8585 13.9939 10.0386C14.1689 10.2187 14.2672 10.463 14.2672 10.7177V11.1979C14.2672 12.3442 13.8247 13.4434 13.0371 14.254C12.2495 15.0645 11.1812 15.5198 10.0674 15.5198Z" fill="#87FEFE"/>
</g>
<defs>
<filter id="filter0_d_105_276" x="0" y="0" width="36" height="32" filterUnits="userSpaceOnUse" color-interpolation-filters="sRGB">
<feFlood flood-opacity="0" result="BackgroundImageFix"/>
<feColorMatrix in="SourceAlpha" type="matrix" values="0 0 0 0 0 0 0 0 0 0 0 0 0 0 0 0 0 0 127 0" result="hardAlpha"/>
<feOffset/>
<feGaussianBlur stdDeviation="2"/>
<feComposite in2="hardAlpha" operator="out"/>
<feColorMatrix type="matrix" values="0 0 0 0 0.94902 0 0 0 0 0.996078 0 0 0 0 0.854902 0 0 0 0.25 0"/>
<feBlend mode="normal" in2="BackgroundImageFix" result="effect1_dropShadow_105_276"/>
<feBlend mode="normal" in="SourceGraphic" in2="effect1_dropShadow_105_276" result="shape"/>
</filter>
</defs>
</svg>
