<svg width="24" height="23" viewBox="0 0 24 23" fill="none" xmlns="http://www.w3.org/2000/svg">
<path d="M6.345 5.69452C9.455 2.50177 14.48 2.48637 17.61 5.64319L15.55 7.75287C15.205 8.10705 15.105 8.63576 15.29 9.09773C15.475 9.55971 15.915 9.85742 16.4 9.85742H22.375H22.8C23.465 9.85742 24 9.30819 24 8.62549V2.05519C24 1.55729 23.71 1.10558 23.26 0.915654C22.81 0.725731 22.295 0.828393 21.95 1.18257L19.87 3.31792C15.49 -1.12217 8.435 -1.10677 4.08 3.36925C2.86 4.62172 1.98 6.0949 1.44 7.67075C1.145 8.52796 1.585 9.46218 2.415 9.76503C3.245 10.0679 4.16 9.61617 4.455 8.76408C4.84 7.64508 5.465 6.59281 6.345 5.69452ZM0 14.3745V14.7646V14.8006V20.9448C0 21.4427 0.29 21.8944 0.74 22.0843C1.19 22.2743 1.705 22.1716 2.05 21.8174L4.13 19.6821C8.51 24.1222 15.565 24.1068 19.92 19.6307C21.14 18.3783 22.025 16.9051 22.565 15.3344C22.86 14.4772 22.42 13.543 21.59 13.2401C20.76 12.9373 19.845 13.389 19.55 14.241C19.165 15.3601 18.54 16.4123 17.66 17.3106C14.55 20.5034 9.525 20.5188 6.395 17.3619L8.45 15.2471C8.795 14.8929 8.895 14.3642 8.71 13.9023C8.525 13.4403 8.085 13.1426 7.6 13.1426H1.62H1.585H1.2C0.535 13.1426 0 13.6918 0 14.3745Z" fill="white"/>
</svg>
