<svg width="33" height="33" viewBox="0 0 33 33" fill="none" xmlns="http://www.w3.org/2000/svg">
<g filter="url(#filter0_d_103_144)">
<path d="M27.0433 20.9587L21.3901 18.4254L21.3745 18.4182C21.081 18.2927 20.7608 18.2423 20.443 18.2717C20.1251 18.301 19.8196 18.4091 19.5541 18.5862C19.5228 18.6069 19.4927 18.6293 19.4641 18.6534L16.5432 21.1435C14.6928 20.2447 12.7824 18.3486 11.8836 16.5222L14.3772 13.557C14.4012 13.527 14.424 13.497 14.4456 13.4646C14.6189 13.1997 14.7241 12.8962 14.7517 12.5809C14.7794 12.2656 14.7286 11.9483 14.604 11.6574V11.643L12.0636 5.98012C11.8989 5.60003 11.6157 5.28341 11.2562 5.07751C10.8968 4.87162 10.4804 4.7875 10.0692 4.8377C8.44314 5.05167 6.95058 5.85024 5.87027 7.08424C4.78997 8.31825 4.1958 9.9033 4.19874 11.5434C4.19874 21.0715 11.9508 28.8235 21.4789 28.8235C23.1189 28.8265 24.704 28.2323 25.938 27.152C27.172 26.0717 27.9705 24.5791 28.1845 22.9531C28.2348 22.542 28.1509 22.1257 27.9452 21.7663C27.7395 21.4069 27.4232 21.1236 27.0433 20.9587ZM21.4789 26.9035C17.4065 26.8991 13.5022 25.2793 10.6225 22.3997C7.74292 19.5201 6.1232 15.6158 6.11875 11.5434C6.11424 10.3715 6.53642 9.23814 7.30645 8.35483C8.07648 7.47151 9.1417 6.89868 10.3032 6.74332C10.3027 6.74811 10.3027 6.75293 10.3032 6.75772L12.8232 12.3978L10.3428 15.3666C10.3176 15.3956 10.2947 15.4265 10.2744 15.459C10.0938 15.7361 9.98786 16.0552 9.96684 16.3853C9.94582 16.7153 10.0104 17.0452 10.1544 17.343C11.2416 19.5666 13.482 21.7903 15.7296 22.8763C16.0296 23.0189 16.3614 23.0813 16.6927 23.0573C17.024 23.0333 17.3433 22.9238 17.6196 22.7395C17.6504 22.7187 17.6801 22.6963 17.7084 22.6723L20.6257 20.1835L26.2657 22.7095C26.2657 22.7095 26.2753 22.7095 26.2789 22.7095C26.1254 23.8726 25.5535 24.94 24.67 25.7119C23.7865 26.4839 22.6521 26.9075 21.4789 26.9035Z" fill="#87FEFE"/>
</g>
<defs>
<filter id="filter0_d_103_144" x="0.19873" y="0.823547" width="32" height="32" filterUnits="userSpaceOnUse" color-interpolation-filters="sRGB">
<feFlood flood-opacity="0" result="BackgroundImageFix"/>
<feColorMatrix in="SourceAlpha" type="matrix" values="0 0 0 0 0 0 0 0 0 0 0 0 0 0 0 0 0 0 127 0" result="hardAlpha"/>
<feOffset/>
<feGaussianBlur stdDeviation="2"/>
<feComposite in2="hardAlpha" operator="out"/>
<feColorMatrix type="matrix" values="0 0 0 0 0.94902 0 0 0 0 0.996078 0 0 0 0 0.854902 0 0 0 0.25 0"/>
<feBlend mode="normal" in2="BackgroundImageFix" result="effect1_dropShadow_103_144"/>
<feBlend mode="normal" in="SourceGraphic" in2="effect1_dropShadow_103_144" result="shape"/>
</filter>
</defs>
</svg>
