<svg width="17" height="14" viewBox="0 0 17 14" fill="none" xmlns="http://www.w3.org/2000/svg">
<path d="M16.7951 2.09242C16.2532 1.1308 14.8231 0.914271 12.6514 1.46106C11.646 0.660882 10.4426 0.166975 9.17815 0.0354463C7.91365 -0.0960825 6.63866 0.14004 5.49801 0.71699C4.35737 1.29394 3.39679 2.18859 2.72542 3.2993C2.05404 4.41002 1.69877 5.69227 1.69997 7.0004C1.70006 7.30045 1.71851 7.6002 1.75522 7.89786C-0.206138 9.98951 -0.177804 11.2289 0.2054 11.9084C0.566646 12.5529 1.3203 12.8328 2.31196 12.8328C3.00047 12.8182 3.68492 12.7203 4.35123 12.5412C5.35678 13.3406 6.55994 13.8338 7.82412 13.9648C9.0883 14.0958 10.3628 13.8594 11.503 13.2824C12.6432 12.7053 13.6034 11.8108 14.2745 10.7004C14.9457 9.59 15.3009 8.30814 15.2998 7.0004C15.3 6.70182 15.2817 6.40352 15.2453 6.10731C16.1307 5.15954 16.72 4.25916 16.9205 3.48855C17.0586 2.95489 17.0168 2.48538 16.7951 2.09242ZM8.49989 1.16798C9.78334 1.16934 11.0284 1.61849 12.0319 2.44209C13.0354 3.2657 13.7379 4.41512 14.0248 5.70268C12.8164 6.87354 11.1809 8.07429 9.62826 8.9929C7.67682 10.1455 5.98392 10.8644 4.63385 11.2581C3.80233 10.4598 3.22355 9.42243 2.97287 8.28091C2.72219 7.13939 2.81122 5.94663 3.22836 4.85791C3.64551 3.76919 4.37145 2.83495 5.31167 2.17682C6.25189 1.51869 7.36285 1.16716 8.49989 1.16798ZM1.18572 11.3229C1.08231 11.14 1.13968 10.7951 1.34297 10.3752C1.544 9.98173 1.78858 9.61354 2.07184 9.27796C2.35262 10.1153 2.78527 10.8901 3.34682 11.5613C2.12496 11.7728 1.3628 11.6379 1.18572 11.3229ZM8.49989 12.8328C7.54445 12.8338 6.6045 12.5844 5.76859 12.1081C7.30289 11.5496 8.78331 10.8452 10.1907 10.0041C11.7192 9.1008 13.0721 8.12168 14.1623 7.15496C14.1219 8.67369 13.5078 10.1164 12.4505 11.1766C11.3932 12.2368 9.976 12.8309 8.49989 12.8328ZM15.8254 3.18673C15.705 3.64676 15.3869 4.17313 14.9308 4.72721C14.6507 3.8889 14.218 3.1132 13.6558 2.44164C14.6623 2.27031 15.5945 2.28343 15.8162 2.67785C15.8799 2.79231 15.8835 2.96364 15.8254 3.18673Z" fill="#007AFF" fill-opacity="0.75"/>
</svg>
