<svg width="34" height="35" viewBox="0 0 34 35" fill="none" xmlns="http://www.w3.org/2000/svg">
<g filter="url(#filter0_d_104_201)">
<path d="M17 4.91498C14.4288 4.91498 11.9154 5.67741 9.77759 7.10587C7.63975 8.53433 5.97351 10.5647 4.98957 12.9401C4.00563 15.3155 3.74819 17.9294 4.2498 20.4512C4.75141 22.9729 5.98953 25.2893 7.80762 27.1074C9.6257 28.9254 11.9421 30.1636 14.4638 30.6652C16.9856 31.1668 19.5995 30.9094 21.9749 29.9254C24.3503 28.9415 26.3807 27.2752 27.8091 25.1374C29.2376 22.9996 30 20.4861 30 17.915C29.9964 14.4683 28.6256 11.1638 26.1884 8.72661C23.7512 6.28943 20.4467 4.91862 17 4.91498ZM17 28.915C14.8244 28.915 12.6977 28.2698 10.8887 27.0611C9.07979 25.8524 7.66989 24.1345 6.83733 22.1245C6.00477 20.1145 5.78693 17.9028 6.21137 15.769C6.63581 13.6352 7.68345 11.6752 9.22183 10.1368C10.7602 8.59843 12.7202 7.55078 14.854 7.12634C16.9878 6.7019 19.1995 6.91974 21.2095 7.7523C23.2195 8.58487 24.9375 9.99476 26.1462 11.8037C27.3549 13.6126 28 15.7394 28 17.915C27.9967 20.8313 26.8367 23.6273 24.7745 25.6895C22.7123 27.7517 19.9164 28.9117 17 28.915ZM23 17.915C23 18.1802 22.8946 18.4345 22.7071 18.6221C22.5196 18.8096 22.2652 18.915 22 18.915H18V22.915C18 23.1802 17.8946 23.4345 17.7071 23.6221C17.5196 23.8096 17.2652 23.915 17 23.915C16.7348 23.915 16.4804 23.8096 16.2929 23.6221C16.1054 23.4345 16 23.1802 16 22.915V18.915H12C11.7348 18.915 11.4804 18.8096 11.2929 18.6221C11.1054 18.4345 11 18.1802 11 17.915C11 17.6498 11.1054 17.3954 11.2929 17.2079C11.4804 17.0203 11.7348 16.915 12 16.915H16V12.915C16 12.6498 16.1054 12.3954 16.2929 12.2079C16.4804 12.0203 16.7348 11.915 17 11.915C17.2652 11.915 17.5196 12.0203 17.7071 12.2079C17.8946 12.3954 18 12.6498 18 12.915V16.915H22C22.2652 16.915 22.5196 17.0203 22.7071 17.2079C22.8946 17.3954 23 17.6498 23 17.915Z" fill="#87FEFE"/>
</g>
<defs>
<filter id="filter0_d_104_201" x="0" y="0.914978" width="34" height="34" filterUnits="userSpaceOnUse" color-interpolation-filters="sRGB">
<feFlood flood-opacity="0" result="BackgroundImageFix"/>
<feColorMatrix in="SourceAlpha" type="matrix" values="0 0 0 0 0 0 0 0 0 0 0 0 0 0 0 0 0 0 127 0" result="hardAlpha"/>
<feOffset/>
<feGaussianBlur stdDeviation="2"/>
<feComposite in2="hardAlpha" operator="out"/>
<feColorMatrix type="matrix" values="0 0 0 0 0.94902 0 0 0 0 0.996078 0 0 0 0 0.854902 0 0 0 0.25 0"/>
<feBlend mode="normal" in2="BackgroundImageFix" result="effect1_dropShadow_104_201"/>
<feBlend mode="normal" in="SourceGraphic" in2="effect1_dropShadow_104_201" result="shape"/>
</filter>
</defs>
</svg>
