<svg width="36" height="32" viewBox="0 0 36 32" fill="none" xmlns="http://www.w3.org/2000/svg">
<g filter="url(#filter0_d_105_284)">
<path d="M11.5 15C11.5 15.2967 11.412 15.5867 11.2472 15.8334C11.0824 16.08 10.8481 16.2723 10.574 16.3858C10.2999 16.4993 9.99834 16.5291 9.70736 16.4712C9.41639 16.4133 9.14912 16.2704 8.93934 16.0607C8.72956 15.8509 8.5867 15.5836 8.52882 15.2926C8.47094 15.0017 8.50065 14.7001 8.61418 14.426C8.72771 14.1519 8.91997 13.9176 9.16664 13.7528C9.41332 13.588 9.70333 13.5 10 13.5C10.3978 13.5 10.7794 13.658 11.0607 13.9393C11.342 14.2206 11.5 14.6022 11.5 15ZM32 15V26C32 26.5304 31.7893 27.0391 31.4142 27.4142C31.0391 27.7893 30.5304 28 30 28H16C15.4696 28 14.9609 27.7893 14.5858 27.4142C14.2107 27.0391 14 26.5304 14 26V23.2938C12.9213 25.0463 11.5225 26 10 26C8.26625 26 6.6925 24.7637 5.57 22.5187C4.5575 20.5 4 17.8237 4 15C4 12.1763 4.5575 9.50625 5.57 7.48125C6.6925 5.23625 8.26625 4 10 4H26C27.7337 4 29.3075 5.23625 30.43 7.48125C31.4425 9.50625 32 12.1763 32 15ZM14 15C14 9.69625 11.8925 6 10 6C8.1075 6 6 9.69625 6 15C6 20.3037 8.1075 24 10 24C11.8925 24 14 20.3037 14 15ZM30 26V16H28C27.7348 16 27.4804 15.8946 27.2929 15.7071C27.1054 15.5196 27 15.2652 27 15C27 14.7348 27.1054 14.4804 27.2929 14.2929C27.4804 14.1054 27.7348 14 28 14H29.9737C29.73 9.2375 27.77 6 26 6H13.515C13.8661 6.46371 14.1725 6.95968 14.43 7.48125C15.3225 9.26625 15.86 11.5512 15.9762 14H18C18.2652 14 18.5196 14.1054 18.7071 14.2929C18.8946 14.4804 19 14.7348 19 15C19 15.2652 18.8946 15.5196 18.7071 15.7071C18.5196 15.8946 18.2652 16 18 16H16V26H30ZM24 14H22C21.7348 14 21.4804 14.1054 21.2929 14.2929C21.1054 14.4804 21 14.7348 21 15C21 15.2652 21.1054 15.5196 21.2929 15.7071C21.4804 15.8946 21.7348 16 22 16H24C24.2652 16 24.5196 15.8946 24.7071 15.7071C24.8946 15.5196 25 15.2652 25 15C25 14.7348 24.8946 14.4804 24.7071 14.2929C24.5196 14.1054 24.2652 14 24 14Z" fill="#87FEFE"/>
</g>
<defs>
<filter id="filter0_d_105_284" x="0" y="0" width="36" height="32" filterUnits="userSpaceOnUse" color-interpolation-filters="sRGB">
<feFlood flood-opacity="0" result="BackgroundImageFix"/>
<feColorMatrix in="SourceAlpha" type="matrix" values="0 0 0 0 0 0 0 0 0 0 0 0 0 0 0 0 0 0 127 0" result="hardAlpha"/>
<feOffset/>
<feGaussianBlur stdDeviation="2"/>
<feComposite in2="hardAlpha" operator="out"/>
<feColorMatrix type="matrix" values="0 0 0 0 0.94902 0 0 0 0 0.996078 0 0 0 0 0.854902 0 0 0 0.25 0"/>
<feBlend mode="normal" in2="BackgroundImageFix" result="effect1_dropShadow_105_284"/>
<feBlend mode="normal" in="SourceGraphic" in2="effect1_dropShadow_105_284" result="shape"/>
</filter>
</defs>
</svg>
