<svg width="24" height="24" viewBox="0 0 24 24" fill="none" xmlns="http://www.w3.org/2000/svg">
<path d="M0 2.57143C0 1.15179 1.15179 0 2.57143 0H7.71429C9.13393 0 10.2857 1.15179 10.2857 2.57143V7.71429C10.2857 9.13393 9.13393 10.2857 7.71429 10.2857H2.57143C1.15179 10.2857 0 9.13393 0 7.71429V2.57143ZM3.42857 3.42857V6.85714H6.85714V3.42857H3.42857ZM0 16.2857C0 14.8661 1.15179 13.7143 2.57143 13.7143H7.71429C9.13393 13.7143 10.2857 14.8661 10.2857 16.2857V21.4286C10.2857 22.8482 9.13393 24 7.71429 24H2.57143C1.15179 24 0 22.8482 0 21.4286V16.2857ZM3.42857 17.1429V20.5714H6.85714V17.1429H3.42857ZM16.2857 0H21.4286C22.8482 0 24 1.15179 24 2.57143V7.71429C24 9.13393 22.8482 10.2857 21.4286 10.2857H16.2857C14.8661 10.2857 13.7143 9.13393 13.7143 7.71429V2.57143C13.7143 1.15179 14.8661 0 16.2857 0ZM20.5714 3.42857H17.1429V6.85714H20.5714V3.42857ZM13.7143 14.5714C13.7143 14.1 14.1 13.7143 14.5714 13.7143H18C18.4714 13.7143 18.8571 14.1 18.8571 14.5714C18.8571 15.0429 19.2429 15.4286 19.7143 15.4286H21.4286C21.9 15.4286 22.2857 15.0429 22.2857 14.5714C22.2857 14.1 22.6714 13.7143 23.1429 13.7143C23.6143 13.7143 24 14.1 24 14.5714V19.7143C24 20.1857 23.6143 20.5714 23.1429 20.5714H19.7143C19.2429 20.5714 18.8571 20.1857 18.8571 19.7143C18.8571 19.2429 18.4714 18.8571 18 18.8571C17.5286 18.8571 17.1429 19.2429 17.1429 19.7143V23.1429C17.1429 23.6143 16.7571 24 16.2857 24H14.5714C14.1 24 13.7143 23.6143 13.7143 23.1429V14.5714ZM19.7143 24C19.487 24 19.2689 23.9097 19.1082 23.749C18.9474 23.5882 18.8571 23.3702 18.8571 23.1429C18.8571 22.9155 18.9474 22.6975 19.1082 22.5368C19.2689 22.376 19.487 22.2857 19.7143 22.2857C19.9416 22.2857 20.1596 22.376 20.3204 22.5368C20.4811 22.6975 20.5714 22.9155 20.5714 23.1429C20.5714 23.3702 20.4811 23.5882 20.3204 23.749C20.1596 23.9097 19.9416 24 19.7143 24ZM23.1429 24C22.9155 24 22.6975 23.9097 22.5368 23.749C22.376 23.5882 22.2857 23.3702 22.2857 23.1429C22.2857 22.9155 22.376 22.6975 22.5368 22.5368C22.6975 22.376 22.9155 22.2857 23.1429 22.2857C23.3702 22.2857 23.5882 22.376 23.749 22.5368C23.9097 22.6975 24 22.9155 24 23.1429C24 23.3702 23.9097 23.5882 23.749 23.749C23.5882 23.9097 23.3702 24 23.1429 24Z" fill="white"/>
</svg>
