<svg width="17" height="17" viewBox="0 0 17 17" fill="none" xmlns="http://www.w3.org/2000/svg">
<path d="M7.93304 14.6946L6.7177 15.9099C6.62393 16.0037 6.49675 16.0564 6.36414 16.0564C6.23154 16.0564 6.10436 16.0037 6.01059 15.9099C5.91682 15.8162 5.86414 15.689 5.86414 15.5564C5.86414 15.4238 5.91682 15.2966 6.01059 15.2028L7.22593 13.9875C7.75335 13.4635 8.12345 12.8023 8.29428 12.0788C8.46511 11.3552 8.42983 10.5983 8.19246 9.89377L7.12252 6.68571C6.82582 5.80511 6.78175 4.85899 6.99531 3.95462C7.20887 3.05024 7.67151 2.22378 8.33078 1.56891L9.54612 0.353573C9.63989 0.259805 9.76707 0.207127 9.89968 0.207127C10.0323 0.207127 10.1595 0.259805 10.2532 0.353573C10.347 0.447341 10.3997 0.574518 10.3997 0.707127C10.3997 0.839735 10.347 0.966912 10.2532 1.06068L9.03789 2.27602C8.51047 2.79997 8.14037 3.46119 7.96955 4.18473C7.79872 4.90828 7.83399 5.66521 8.07137 6.36973L9.14131 9.57778C9.438 10.4584 9.48207 11.4045 9.26851 12.3089C9.05495 13.2133 8.59232 14.0397 7.93304 14.6946ZM6.36414 12.7279L2.48257 8.84637C2.74043 8.62252 3.02607 8.43284 3.33242 8.28201L6.54578 11.4954C6.63955 11.5891 6.76673 11.6418 6.89934 11.6418C7.03194 11.6418 7.15912 11.5891 7.25289 11.4954C7.34666 11.4016 7.39934 11.2744 7.39934 11.1418C7.39934 11.0092 7.34666 10.882 7.25289 10.7883L4.39574 7.93111C4.82963 7.85205 5.27363 7.84563 5.70963 7.9121C5.7746 7.92211 5.84091 7.91923 5.90477 7.90362C5.96862 7.888 6.02878 7.85996 6.0818 7.8211C6.13482 7.78224 6.17967 7.73331 6.21378 7.67712C6.2479 7.62092 6.27061 7.55856 6.28062 7.49358C6.29063 7.42861 6.28774 7.3623 6.27213 7.29845C6.25652 7.23459 6.22848 7.17443 6.18961 7.12141C6.15075 7.06839 6.10182 7.02354 6.04563 6.98943C5.98943 6.95532 5.92707 6.93261 5.8621 6.9226C5.08626 6.80521 4.29371 6.87145 3.54812 7.11599C2.80253 7.36053 2.12469 7.77655 1.56908 8.33062L0.353737 9.54596C0.259968 9.63973 0.207289 9.76691 0.207289 9.89952C0.207289 10.0321 0.259968 10.1593 0.353737 10.2531C0.447505 10.3468 0.574681 10.3995 0.707289 10.3995C0.839897 10.3995 0.967075 10.3468 1.06084 10.2531L1.76795 9.54596L5.65704 13.435C5.75081 13.5288 5.87798 13.5815 6.01059 13.5815C6.1432 13.5815 6.27038 13.5288 6.36414 13.435C6.45791 13.3413 6.51059 13.2141 6.51059 13.0815C6.51059 12.9489 6.45791 12.8217 6.36414 12.7279ZM15.9101 6.01043C15.8163 5.91666 15.6891 5.86398 15.5565 5.86398C15.4239 5.86398 15.2967 5.91666 15.203 6.01043L14.4959 6.71753L10.6068 2.82845C10.513 2.73468 10.3858 2.682 10.2532 2.682C10.1206 2.682 9.99345 2.73468 9.89968 2.82845C9.80591 2.92222 9.75323 3.04939 9.75323 3.182C9.75323 3.31461 9.80591 3.44179 9.89968 3.53555L13.7813 7.41713C13.5234 7.64098 13.2378 7.83066 12.9314 7.98149L9.71804 4.76813C9.62427 4.67436 9.4971 4.62168 9.36449 4.62168C9.23188 4.62168 9.1047 4.67436 9.01093 4.76813C8.91717 4.8619 8.86449 4.98907 8.86449 5.12168C8.86449 5.25429 8.91717 5.38147 9.01093 5.47524L11.8681 8.33239C11.4342 8.41144 10.9902 8.41787 10.5542 8.35139C10.4893 8.34144 10.423 8.34437 10.3593 8.36002C10.2955 8.37566 10.2354 8.40372 10.1825 8.44258C10.1295 8.48144 10.0848 8.53035 10.0507 8.58652C10.0167 8.64268 9.99404 8.705 9.98409 8.76991C9.96399 8.90101 9.99679 9.03473 10.0753 9.14164C10.1141 9.19458 10.163 9.23935 10.2192 9.27339C10.2754 9.30742 10.3377 9.33006 10.4026 9.34002C11.1782 9.45737 11.9706 9.39119 12.716 9.14681C13.4614 8.90244 14.1391 8.48666 14.6947 7.93287L15.9101 6.71753C16.0039 6.62377 16.0565 6.49659 16.0565 6.36398C16.0565 6.23137 16.0039 6.1042 15.9101 6.01043Z" fill="#007AFF" fill-opacity="0.75"/>
</svg>
