<svg width="40" height="28" viewBox="0 0 40 28" fill="none" xmlns="http://www.w3.org/2000/svg">
<g filter="url(#filter0_d_105_268)">
<path d="M35 13H34V9C34 8.46957 33.7893 7.96086 33.4142 7.58579C33.0391 7.21071 32.5304 7 32 7H30V6C30 5.46957 29.7893 4.96086 29.4142 4.58579C29.0391 4.21071 28.5304 4 28 4H25C24.4696 4 23.9609 4.21071 23.5858 4.58579C23.2107 4.96086 23 5.46957 23 6V13H17V6C17 5.46957 16.7893 4.96086 16.4142 4.58579C16.0391 4.21071 15.5304 4 15 4H12C11.4696 4 10.9609 4.21071 10.5858 4.58579C10.2107 4.96086 10 5.46957 10 6V7H8C7.46957 7 6.96086 7.21071 6.58579 7.58579C6.21071 7.96086 6 8.46957 6 9V13H5C4.73478 13 4.48043 13.1054 4.29289 13.2929C4.10536 13.4804 4 13.7348 4 14C4 14.2652 4.10536 14.5196 4.29289 14.7071C4.48043 14.8946 4.73478 15 5 15H6V19C6 19.5304 6.21071 20.0391 6.58579 20.4142C6.96086 20.7893 7.46957 21 8 21H10V22C10 22.5304 10.2107 23.0391 10.5858 23.4142C10.9609 23.7893 11.4696 24 12 24H15C15.5304 24 16.0391 23.7893 16.4142 23.4142C16.7893 23.0391 17 22.5304 17 22V15H23V22C23 22.5304 23.2107 23.0391 23.5858 23.4142C23.9609 23.7893 24.4696 24 25 24H28C28.5304 24 29.0391 23.7893 29.4142 23.4142C29.7893 23.0391 30 22.5304 30 22V21H32C32.5304 21 33.0391 20.7893 33.4142 20.4142C33.7893 20.0391 34 19.5304 34 19V15H35C35.2652 15 35.5196 14.8946 35.7071 14.7071C35.8946 14.5196 36 14.2652 36 14C36 13.7348 35.8946 13.4804 35.7071 13.2929C35.5196 13.1054 35.2652 13 35 13ZM8 19V9H10V19H8ZM15 22H12V6H15V22ZM28 22H25V6H28V19.9775C28 19.985 28 19.9925 28 20C28 20.0075 28 20.015 28 20.0225V22ZM32 19H30V9H32V19Z" fill="#87FEFE"/>
</g>
<defs>
<filter id="filter0_d_105_268" x="0" y="0" width="40" height="28" filterUnits="userSpaceOnUse" color-interpolation-filters="sRGB">
<feFlood flood-opacity="0" result="BackgroundImageFix"/>
<feColorMatrix in="SourceAlpha" type="matrix" values="0 0 0 0 0 0 0 0 0 0 0 0 0 0 0 0 0 0 127 0" result="hardAlpha"/>
<feOffset/>
<feGaussianBlur stdDeviation="2"/>
<feComposite in2="hardAlpha" operator="out"/>
<feColorMatrix type="matrix" values="0 0 0 0 0.94902 0 0 0 0 0.996078 0 0 0 0 0.854902 0 0 0 0.25 0"/>
<feBlend mode="normal" in2="BackgroundImageFix" result="effect1_dropShadow_105_268"/>
<feBlend mode="normal" in="SourceGraphic" in2="effect1_dropShadow_105_268" result="shape"/>
</filter>
</defs>
</svg>
