<svg width="72" height="65" viewBox="0 0 72 65" fill="none" xmlns="http://www.w3.org/2000/svg">
<g filter="url(#filter0_d_286_3)">
<path d="M66.6001 50.9003L42.0048 8.18688C41.3902 7.14042 40.5127 6.27274 39.4595 5.66986C38.4062 5.06698 37.2137 4.74982 36.0001 4.74982C34.7865 4.74982 33.594 5.06698 32.5407 5.66986C31.4874 6.27274 30.61 7.14042 29.9954 8.18688L5.40009 50.9003C4.80872 51.9125 4.49707 53.0637 4.49707 54.2359C4.49707 55.4082 4.80872 56.5594 5.40009 57.5716C6.00683 58.6244 6.88275 59.4968 7.93798 60.0992C8.9932 60.7017 10.1897 61.0126 11.4048 61H60.5954C61.8095 61.0116 63.0049 60.7003 64.059 60.0978C65.1132 59.4954 65.9882 58.6235 66.5945 57.5716C67.1867 56.5599 67.4993 55.409 67.5003 54.2367C67.5013 53.0644 67.1906 51.913 66.6001 50.9003ZM62.6991 55.3188C62.4847 55.6845 62.1769 55.9867 61.8072 56.1942C61.4375 56.4018 61.0193 56.5073 60.5954 56.5H11.4048C10.9809 56.5073 10.5626 56.4018 10.193 56.1942C9.82327 55.9867 9.51544 55.6845 9.30102 55.3188C9.10681 54.9899 9.00436 54.615 9.00436 54.2331C9.00436 53.8512 9.10681 53.4763 9.30102 53.1475L33.8963 10.4341C34.1151 10.07 34.4243 9.76884 34.7939 9.55972C35.1636 9.35061 35.581 9.2407 36.0057 9.2407C36.4304 9.2407 36.8479 9.35061 37.2175 9.55972C37.5871 9.76884 37.8963 10.07 38.1151 10.4341L62.7104 53.1475C62.9029 53.4773 63.0034 53.8528 63.0014 54.2347C62.9995 54.6166 62.8951 54.9909 62.6991 55.3188ZM33.7501 38.5V27.25C33.7501 26.6533 33.9871 26.081 34.4091 25.659C34.8311 25.2371 35.4034 25 36.0001 25C36.5968 25 37.1691 25.2371 37.5911 25.659C38.013 26.081 38.2501 26.6533 38.2501 27.25V38.5C38.2501 39.0967 38.013 39.669 37.5911 40.091C37.1691 40.513 36.5968 40.75 36.0001 40.75C35.4034 40.75 34.8311 40.513 34.4091 40.091C33.9871 39.669 33.7501 39.0967 33.7501 38.5ZM39.3751 48.625C39.3751 49.2925 39.1771 49.945 38.8063 50.5001C38.4354 51.0551 37.9083 51.4876 37.2916 51.7431C36.6749 51.9985 35.9963 52.0654 35.3417 51.9352C34.687 51.8049 34.0856 51.4835 33.6136 51.0115C33.1416 50.5395 32.8202 49.9381 32.6899 49.2834C32.5597 48.6287 32.6265 47.9501 32.882 47.3334C33.1374 46.7167 33.57 46.1896 34.125 45.8188C34.6801 45.4479 35.3326 45.25 36.0001 45.25C36.8952 45.25 37.7536 45.6056 38.3866 46.2385C39.0195 46.8715 39.3751 47.7299 39.3751 48.625Z" fill="#E44F4A"/>
</g>
<defs>
<filter id="filter0_d_286_3" x="0.49707" y="0.749817" width="71.0032" height="64.2505" filterUnits="userSpaceOnUse" color-interpolation-filters="sRGB">
<feFlood flood-opacity="0" result="BackgroundImageFix"/>
<feColorMatrix in="SourceAlpha" type="matrix" values="0 0 0 0 0 0 0 0 0 0 0 0 0 0 0 0 0 0 127 0" result="hardAlpha"/>
<feOffset/>
<feGaussianBlur stdDeviation="2"/>
<feComposite in2="hardAlpha" operator="out"/>
<feColorMatrix type="matrix" values="0 0 0 0 0.94902 0 0 0 0 0.996078 0 0 0 0 0.854902 0 0 0 1 0"/>
<feBlend mode="normal" in2="BackgroundImageFix" result="effect1_dropShadow_286_3"/>
<feBlend mode="normal" in="SourceGraphic" in2="effect1_dropShadow_286_3" result="shape"/>
</filter>
</defs>
</svg>
